<mxfile>
  <diagram name="总览" id="总览">
    <mxGraphModel grid="0">
      <root>
        <mxCell id="0" />
        <mxCell id="1" parent="0" />
      </root>
    </mxGraphModel>
  </diagram>
  <diagram name="线性地址字段 The Linear Address Fields" id="线性地址字段 The Linear Address Fields">
    <mxGraphModel grid="0">
      <root>
        <mxCell id="0" />
        <mxCell id="1" parent="0" />
      </root>
    </mxGraphModel>
  </diagram>
  <diagram name="页表处理 Page Table Handling" id="页表处理 Page Table Handling">
    <mxGraphModel grid="0">
      <root>
        <mxCell id="0" />
        <mxCell id="1" parent="0" />
      </root>
    </mxGraphModel>
  </diagram>
  <diagram name="物理内存布局 Physical Memory Layout" id="物理内存布局 Physical Memory Layout">
    <mxGraphModel grid="0">
      <root>
        <mxCell id="0" />
        <mxCell id="1" parent="0" />
      </root>
    </mxGraphModel>
  </diagram>
  <diagram name="进程页表 Process Page Tables" id="进程页表 Process Page Tables">
    <mxGraphModel grid="0">
      <root>
        <mxCell id="0" />
        <mxCell id="1" parent="0" />
      </root>
    </mxGraphModel>
  </diagram>
  <diagram name="内核页表 Kernel Page Tables" id="内核页表 Kernel Page Tables">
    <mxGraphModel grid="0">
      <root>
        <mxCell id="0" />
        <mxCell id="1" parent="0" />
      </root>
    </mxGraphModel>
  </diagram>
  <diagram name="固定映射的线性地址 Fix-Mapped Linear Addresses" id="固定映射的线性地址 Fix-Mapped Linear Addresses">
    <mxGraphModel grid="0">
      <root>
        <mxCell id="0" />
        <mxCell id="1" parent="0" />
      </root>
    </mxGraphModel>
  </diagram>
  <diagram name="处理硬件高速缓存和TLB Handling the Hardware Cache and the TLB" id="处理硬件高速缓存和TLB Handling the Hardware Cache and the TLB">
    <mxGraphModel grid="0">
      <root>
        <mxCell id="0" />
        <mxCell id="1" parent="0" />
      </root>
    </mxGraphModel>
  </diagram>
</mxfile>
